 http://www.imdb.com/title/tt1179034/

Source: From Paris with Love 720p Bluray x264-CBGB Thanks!

Subs: Arabic, Brazilian, Danish, Dutch, English, Farsi-Persian, Finnish, Greek, Hungarian, Indonesian, Malay, Norwegian, Polish, Portuguese, Romanian, Slovenian, Spanish, Swedish, Turkish and Vietnamese.

Subs: English hardcoded when needed.

Sample and Screens included.

General
Complete name                            : From Paris with Love-720p MP4 AAC x264 BRRip 2010-CC.mp4
Format                                   : MPEG-4
Format profile                           : Base Media
Codec ID                                 : isom
File size                                : 2.67 GiB
Duration                                 : 1h 32mn
Overall bit rate mode                    : Variable
Overall bit rate                         : 4 126 Kbps
Encoded date                             : UTC 2013-01-26 10:01:11

Video
ID                                       : 1
Format                                   : AVC
Format/Info                              : Advanced Video Codec
Format profile                           : 
Format settings, CABAC                   : Yes
Format settings, ReFrames                : 5 frames
Codec ID                                 : avc1
Codec ID/Info                            : Advanced Video Coding
Duration                                 : 1h 32mn
Bit rate                                 : 3 852 Kbps
Maximum bit rate                         : 17.7 Mbps
Width                                    : 1 280 pixels
Height                                   : 536 pixels
Display aspect ratio                     : 2.40:1
Frame rate mode                          : Variable
Frame rate                               : 23.976 fps
Minimum frame rate                       : 19.048 fps
Maximum frame rate                       : 24.390 fps
Color space                              : YUV
Chroma subsampling                       : 4:2:0
Bit depth                                : 8 bits
Scan type                                : Progressive
Bits/(Pixel*Frame)                       : 0.234
Stream size                              : 2.42 GiB (91%)
Writing library                          : x264 core 112

Audio
ID                                       : 2
Format                                   : AAC
Format/Info                              : Advanced Audio Codec
Format profile                           : LC
Codec ID                                 : 40
Duration                                 : 1h 32mn
Bit rate mode                            : Variable
Bit rate                                 : 384 Kbps
Maximum bit rate                         : 720 Kbps
Channel(s)                               : 6 channels
Channel positions                        : Front: L C R, Side: L R, LFE
Sampling rate                            : 48.0 KHz
Compression mode                         : Lossy
Delay relative to video                  : 83ms
Stream size                              : 254 MiB (9%)
Language                                 : English

Enjoy...

Requested by Danny66

Coming soon: Apocalypse Hitler, Frequency, , Ikiru, Randsom and more..